<?xml version="1.0" encoding="UTF-8"?>
<svg id="_圖層_2" data-name="圖層 2" xmlns="http://www.w3.org/2000/svg" viewBox="0 0 212.14 37.41">
  <g id="_圖層_1-2" data-name="圖層 1">
    <g>
      <g>
        <rect x="46.89" y="1.72" width="45.99" height="34.98" fill="#b01e25"/>
        <path d="M82.1,29.37c-2.48,.17-4.42,.74-6.44,.75-.74,.04-1.25-.27-2.05-.03-.75,.55-1.82,.75-2.66,1.08-.32,.14-.66,.33-.96,.29-.55-.27-1.57-.31-2.35-.03-.58,.08-1.72-.11-2.36-.13-1.75,.15-3.15-.19-4.72,.71-.26,.15-.87,.05-1.3-.26-.48-.07-.72-.36-1.22-.84,0-.16,.11-.28,.22-.28,.83-.11,1.32-.83,1.91-1.62,.41-.65,1.15-1.11,1.44-1.82,.3-.3,.6-1.04,.82-1.43,.02-1.45,.64-2.1,2-2.99-.8-.87-.32-1.03,.37-1.45,.55-.38,1.01-.67,1.26-1.23-1.54,.24-3.18,.11-4.45,.82-1.19,.41-2.28,1.07-3.22,1.32-1.08,.34-2.24,.78-3.31,1.12-.54,.08-1.31,.2-1.85-.62-.17-.21-.67-.92-.84-1.14,.05-.52,.3-.92,.41-1.53,.16-.75,1.15-1.15,1.79-1.11,.32-.04,.51-.12,1.05-.07,.12-.07,.2-.21,.26-.08,.96,.77,2.24-.07,3.04-.26,.58-.18,1.24-.51,1.87-.64,.18,0,.21-.16,.41-.2,1.04,.31,2.3-.52,3.4-.49,2.13,0,4.13-.26,6.25-.71,.33-.15,.46-.29,.73-.14,1.26-.15,2.49,0,3.96-.12,.37,.17,1.26-.29,1.62-.37,.99-.22,2.16-1.02,3.1-.99,1.44-.02,2.35-.33,2.91-1.04,.04-.11,.79,.22,.94,.33,.36,.51,1.03,1.4,.83,2.08-.22,1.35-.72,1.56-1.79,1.67-1.4,.16-2.62,.32-3.95,.36-.89,.2-1.97,.32-2.6-.36-.33-.14-.9,.03-1.4-.06-.97,.05-2.09,.09-3.19,.14-.84-.05-1.57,.27-2.37,.23-.03-.01-.4,.33-.45,.62,0,.07,.37,.13,.51,.46,1.02,.9,2.06,1.32,3.12,2.14,.85,.41,1.45,1.29,2.77,1.16,.71,.17,1.04,.83,1.89,1.03,.59,.27,1.32,.87,2.11,1.23,.18,.13,.46,.24,.65,.45,.32,.53,.95,.87,1.12,1.33,.35,.86,.53,1.87,.75,2.7m-7-2.88c-.14-.08-.44-.46-.69-.55-1.8-.33-2.27-2.03-3.51-3.14-.63-.61-1.35-.99-2.13-1.15-.21-.09-.77,.51-1.08,1.12-.29,.17-.39,.74-.65,1.12-.3,.29-.58,1.04-.92,1.02-.72,.46-.9,.88-1.27,1.51,.1,.32-.33,.52-.42,.72-.21,.38-.4,.76-.23,1.02,.15,.25,.82,.36,1.07,.45,.68,.06,1.13,.16,1.78,.33,.62,.09,1.29,.7,1.83-.17,.13-.25,.32-.19,.5-.19,.87-.37,2.13-.64,3.23-.88,.27-.04,.68,0,.99,.06,.51,.11,1.55-.59,1.5-1.27" fill="#fff"/>
        <path d="M64.46,6.11c1.4,.86,2.92,1.2,3.9,2.08,.74,.18,1.7,.72,2.4,.93,1.24,.47,1.22,1.43,1.36,2.24-.94,.61-1.85,1.42-2.92,1.94-.13,.11-.52,.45-.89,.36-.51,.1-1.18-.15-1.39,.72-.97-.13-1.01-.41-1.27-1.41-.18-2.01-.63-4.03-1.14-6.02-.23-.15-.06-.48-.05-.84" fill="#fff"/>
        <path d="M18.54,13.29c-.59-.11-1.34-.39-2-.29-1.84,.01-2.02-.8-1.93-2.45,.39-.36,.2-1.12,.22-1.38,.07-.9,.85-1.35,1.71-.79,.96,1.01,2.6,1.08,4,1.15,1.95,.02,4.2-.23,6.22-.13,1.06-.06,2.49,.09,3.81,.02,1.65,.03,3.43-.16,4.88-.52,1.58-.09,2.5-.56,4.11-.63,.34-.14,.38,.1,.5,.39,.07,1.11,.43,1.83,.31,2.77,.24,.1-.14,.44-.41,.47-.76,.15-2.18,.27-2.71,.52-.27,.1-.2,.34-.45,0-1.74-.63-3.28-.24-5.52,.03-.17,.01-.15,.14-.45,.09-1.58,.17-3.49-.4-5.25-.07-1.18,.12-2.33,.46-3.44,.64-.36-.09-.58,.36-.64,.63-.25,.51-.48,.76-.44,1.4-.15,2.05-.48,4.56-.89,6.27-.21,1.81-1.48,4.03-2.2,5.78-1.01,1.93-2.11,3.12-3.72,4.35-1.24,.96-2.6,1.7-4.47,1.13-1.64-.83-3.42-1.75-4.52-3.22-.41-.67-.97-1.32-1.75-1.78-.28-.24-.24-.42-.4-.94,.25,.04,.53-.35,.89-.32,.97-.15,1.68-.06,2.46-.33,1.67-.67,2.02-.45,2.98,1.08,.62,1.17,1.07,1.4,1.86,.47,1.36-1.32,2.49-2.26,3.53-3.65,.35-.45,.61-1.25,.56-2.34-.15-.99,.38-1.77,1.42-2.16,.1,.05,.15,.01,.44-.15,.5-.34,1.36-3.52,1.17-3.78-.52-.98-.48-1.06,.17-2.25"/>
        <path d="M25.98,16.98c.7,.07,1.17-.09,2.04,0,.82,0,1.6-.33,2.25-.64,.35-.42,1.2-.71,1.62-.38,1.78,.84,3.45,.55,5.19,.21,1.84-.07,2.13,.05,2.16,2.07-.19,.33-.07,1.09-.24,1.28-.51,.8-.27,1.5,.05,2.78,.46,1.15,.24,2.07,.46,3.27,.23,.66,.26,1.25,.55,2.02,.49,.85,.08,1.4-.85,1.45-1.15-.04-2.17,.18-3.33,.04-1.36,.2-2.17,.28-3.33,.09-.99-.02-1.6-.03-2.51,.56-.74,.36-1.3,.4-2.18-.03-.59-.52-1.05-.63-1.88,.07-.5,.25-.91,.5-1.26,.55-.68,.19-.88,.3-1.4,.94-.46,.72-1.17,.56-1.51-.15-.26-.15-.75-.51-.26-.88,.14-1.1-.15-2.51,.21-3.49,.43-1.49,.78-3,.78-4.68,.31-1.28,.34-2.95-.2-4.4-.05-.68,.44-.5,.74-.69,.87,.07,1.91,0,2.88,0,.04,.04-.07-.07,0,0m6.08,9.92c1.29-.44,2.64-.37,3.78-.6,.67-.16,.77-.44,.78-1.04,.09-1.59-.24-3.02-.23-4.35-.05-.84-.66-1.55-1.71-1.54-.57,.1-.86,.26-1.29,0-1.13-.43-2.65-.38-3.56-.28-1.13,.09-2.6,.35-3.54,.46-.32-.22-.62,.69-.8,.81-.05,2.26-.46,4.51,1.66,6.03,.66,.53,1.04,.63,1.42,.08,.42-.24,.65,.09,.95-.28,.83,.26,1.73,.25,2.54,.71"/>
        <path d="M92.09,36.92c.93-.03-.5-.1,.61-.05-.13,.05-.31,.08-.61,.05" fill="#b01e25"/>
        <path d="M92.85,33.61c-.31-3,0-6.95-.19-10.24-.01-.38,.17,.1,.13-.77-.24-3.19-.1-8.2,.09-12.08l.05,.23c.03-.74-.12-1.64-.1-2.42,.03,0,.04,.25,.09,.07-.1-.2-.04-1.41-.12-1.75,.04-.31,.11-.28,.15-.68l-.11-.45c-.1-.51-.12-1.11-.11-1.76,0-.32,.01-.66,.02-1,0-.34,.01-.73,.01-1.1-.33,0-.68,.01-.99,.04,.08-.03,.27-.04,.12-.07-2.74,.15-6.15,.13-9.2,.18,.12-.04,.23-.11,.05-.15-.15,.11-1.09,.14-1.91,.16-.37-.12-1.4,.11-2.36,.04l.08-.03c-.71,.12-1.05-.07-1.63,.08l-.45-.09c-.31,.16-1.03-.09-1.61,0l.02,.03c-.55,.04-.84-.04-1.35-.02l-.05-.02c-1.2,.04-1.9-.05-1.87,.08-.42-.1,1.16-.05,.5-.2-3.95,.13-8.02,.11-11.99,.11-.45-.05-.74-.07-.84-.12-.4,.03-1.49,.02-1.86,.09,.13,0-.26-.07-.47-.07-.72-.05-.79,.14-1.58,.08,.32-.03,.42-.08,.32-.12-.68,.1-1.58,.08-2.38,.12,.12-.02,.32-.03,.29-.07-.88,.11-1.6-.03-2.36,.05l.29-.07c-1.24-.09-.36,.16-1.43,.1,.26-.02,.17-.05,.21-.08-1,.13-2.61,.09-3.6,.14,.06-.01,.04-.03,.04-.03-1.08,.02-2.22-.02-3.41,.03-.43-.03,.14-.18-1-.15,.04,.15-1.95,.06-1.27,.23-.98-.03-2.53-.08-3.18-.03,.44-.06-.48-.18,.34-.2l-.61-.09c.09-.06,.63,.02,.44-.06-.41,0-1.6,.07-1.96,.04-.75,.09-1.45,.26-2.67,.28,.57-.06-.33-.16,.06-.19l-1.71,.28c-.41,0-.09-.12-.68-.08,.03,.04-.23,.06-.41,.09-.15-.02-1.69,.04-1.87-.11-.18-.06,.66-.03,.21-.08-.75,0-.79,.05-1.54,.05v-.02c-.51-.02-1.48,.06-.94,.14,.35,0-.13-.09,.38-.05-.35,.09-1.22,.11-1.98,.11,.26-.02,.23-.06,.33-.1-1.01,.11-2.08,.15-3.21,.2-.02,.07,.42-.13,.59-.09-1.45-.1-2.99,.14-4.19,0,.2-.01,.11,.1,.09,.08-.7,0-.67-.11-1.12-.07-.04-.06-.57,.02-1.04,.04-.24,.04-.12-.03,.29-.04-.65,.05-3.26,.14-4.76,.05,.03,.04-.93,.14-1.27,.14l.13-.09c-.32-.05-1.16,0-1.21-.07-.74,.11,2.84-.1,1.84,0-.26-.08-1.39,.14-1.18,.02-.7,0-1.37,.11-2.03,.02,.19,.02,.56-.13,0-.12-.99,.02-.28,.04-1.08,.07l-.5,.04c-.03,.09-.88-.01-.51,.09-.12-.07-1.44,.04-1.33-.1l.14-.12c-.43,0-.7,.12-1.03,.17-.06-.01-.17-.03-.15-.05-.07,.18-1.02-.01-1.53,.12-.11,0-.23-.01-.35-.02-.1,0-.21,0-.32-.01-.12,0-.24,0-.36-.01,0,.12,0,.23-.02,.34,0,.03,0,.05,0,.07,0,.05,0,.09-.01,.13,0,.08-.02,.15-.04,.21,.06,.69,.12,1.32,.08,2.1-.02-.16-.02-.37-.06-.41-.05,.49,0,.61,.02,1.06-.03-.1-.1,.99-.17,1.53,.05,.68,.15,.45,.21,.52-.18,.63,.11,1.93-.05,2.71-.02-.24-.09-1-.13-.43-.18,.63,.13,1.26,.05,2.27l.15-.25c-.09,.45,.09,1.48-.07,1.38,.05,.34-.05,1.19,.1,1.08-.12,1.66,.07,4.03-.18,5.04,.02,.24,0,.83,.07,.71,.08-.39-.06-.55,0-.7,0,.21,.04,.26,.06,.28-.03,.51-.04,.92-.16,.43-.09,1.15,.24,1.18,.19,2.64-.06-.07-.08,.04-.07,.47l.1,.81c-.02,.94-.13,.54-.24,.56,.02,.5,.01,1.12,.09,1.35l-.12,.61c.09-.45,.06,.41,.08,.65l-.02-.24c-.04,.09-.02,.68,0,.97,.06-.07,.09-.66,.1-.99,.04,.26,.03,.66,.08,1-.1-.11-.07,.82-.08,1.22-.02,.46,.09,.52,.08,.65-.05,.01,0,.75-.08,.39-.01-.16,.05-.36,0-.62-.04,.3-.13,.27-.06,.89,.05,.47,.19-.12,.13,.78-.02-.24-.06-.28-.1-.46l-.05,.84,.09,.04c-.02,.11-.03,.03-.04,.09,.09,.25,.03,1.28,.13,1.47,0,.42-.06,.89-.07,1.3v-.08c-.03,.25-.04,.54-.03,.81,0,.14,.01,.28,.02,.4,.01,.06,.02,.11,.04,.15h-.02c0,.06,0,.15,0,.24,.12,0,.26-.03,.33-.05,.04,.02,.18,.05,.24,.08,.07,.03,.1,.07,.13,.1,.07,.06,.14,.1,.52,.04,.69,0,1.09-.16,.81-.22,1.25,.06,2.66-.08,3.82,.05,.18-.04,.07-.06,.43-.08,1.83,.04,3.86-.11,5.32,.07-.53,.04-.04,.09-.02,.14,.44-.08,.52,.08,.68-.05-.04-.08,0-.12-.51-.15,1.09-.04,2.75-.04,3.36,.03-.3-.04-.07-.06,.17-.09-.08,.13,.73,.15,1.33,.1l.09-.08,.4,.08c.23-.03,.26-.16,.86-.09,.03,.03,.07,.06,.18,.08,.63-.06,1.52-.17,2.2-.11l.56,.11c.29-.01,.78-.08,.27-.11,1.16,.07,1.92,.08,2.29,.18,2.01-.24,4.92-.25,7.26-.23l-.07,.06c.63,.05,.33-.1,.76-.06-.2,.05,.48,.12-.01,.19,.9,.06,1.16-.1,1.74-.13,.09-.08-.47,.05-.36-.05,.1-.03,1.24,.06,1.38-.06,.23,.05,.05,.13-.07,.18l.55-.06c.67,.14-1.53,.24-.82,.41l.51-.02c.48,.12-1.34,.14-.07,.18,.55-.06,1.02-.23,.53-.28,1.15-.03,.53-.28,1.76-.27,.34,.07-.99,.02-.75,.11,.58,.09,1.17-.05,1.68-.02-.57-.04-.09-.16,.28-.18,.63,.06-.41,.11,.48,.12,.15-.07,.96-.12,.26-.16,.32-.15,.92,.04,1.41-.08,.29,.11-.91,.25,.06,.3-.15-.1,1.2-.14,.69-.29,.38,.03,.42,.11,.14,.17,.55,.06,1.32-.19,1.51,.02l.19-.11c.17,.03,.42,.06,.69,.12,.48,0,1.55-.14,1.51,.02,.15-.02,1.25,0,.83-.12-.68-.07-.78,.08-1.16-.07,.48,.12,.98-.02,1.38-.06l.06,.06c.24-.02,.78-.01,.92-.08-.18,.04-.09,.08,.1,.09l.25-.09c.96-.05,.22,.16,1.15,.14l-.71,.07c.15-.02,.47,.07,.92,.04,.17-.09,.5-.19,.65-.25,.52-.04,.24,.1,.75,0l-.67,.1c-.1,.03,.46,.14,1.15,.14,.45-.03,1.14-.15,.43-.2,.35,0,.84,.05,.57,.11,.79-.03-.1-.09,.58-.15,.28,.06,1.15,.14,1.68,.22l-.72,.14h.48c-.62,.12,.31,.09-.04,.21,.32,.02,.72-.02,1.03-.05-.95-.19,1.07-.27,.79-.44,1.3-.05,.82,.43,2.17,.15-.22-.05,.42-.18-.4-.13,.81,.02,.55-.18,1.51-.1-.71,.07,.76,.18-.26,.28,.07-.06-.57-.04-.73-.03,.33,.07-.07,.18,.76,.18,.51-.02,1.2-.02,1.1-.11-.02-.1-.77,.01-.45-.09,1.01-.04,1.18,.12,1.59-.06-.64,.01-.8-.09-.79-.16l.74-.04-.14,.07c1.19,.05,.35-.12,1.5-.1l.54,.13c-.27,.11-1.68-.05-1.47,.14,.75,0,1-.09,1.7-.04-.16,.01-.37,.03-.53,.04,.27,0,.54,.25,1.6,.11,.55-.06,.15-.07,.16-.14,1.2-.02,1.56-.09,2.33-.1-.16,.14,1.37,.01,.51,.15-.39-.08-2.13-.07-2.56,.06,.44,.16-.94-.02-1.2,.14,.96,0,.92,.16,1.07,.27,.27,0,.53-.04,.68-.05,.11-.1-.24-.1-.26-.2,1.08,.03,2.11-.03,2.7-.12,.36,.05,.24,.15-.18,.16,1.28-.03,2.65-.02,3.86,.01-.78-.16,1.36-.04,.82-.17-.65-.04-1.21-.15-.85-.22,.41,.01-.01,.07,.16,.1,.52-.09,.81,.14,1.31,0-1.17,.05-.23,.19-.44,.32,.84-.07-.04,.09,.8,.09,.84-.07,1.87-.12,2.8-.15,1.17,.12,2.97,0,4.02,0,.55,.06,.18,.2,.77,.23,.7,0-.52-.15,.52-.09l-.1,.03c.31-.03,1.89,.1,2.2-.11l-.32,.15c.19,.01,.37-.02,.53-.04,0,.05,.23,.1-.08,.13,.64,.11,1.34-.02,2.03-.02l-.44-.09c1.19-.07,1.98,.02,3.13-.01l-.03,.09,.68-.05c-.17,.09,.46,.14,.82,.07l-1.77,.22c-.49-.05,.54-.11,.23-.19-.26-.08-1.32-.05-1.5,.03,.41,0,.43-.01,.74-.04,.13,.12-.48,.12-.79,.2,.21,0,.52,.03,.56,0-.42,.06-.84,.07-1.54,.07,.47-.05-.26-.08-.08-.11-.05,.11-.72,.14-1.58,.11-.62-.13-1.62,.08-2.62,.05,.4-.11,.92-.2,1.53-.24-.62-.05-.7,0-1.32-.05-.3,.08-.52,.21-1.34,.26l-.04-.08c-.74,.04-.74,.16-1.68,.14-1.61-.04-3.28-.04-4.51-.05l-.05-.08c-.68,.17-2.28,.06-3.21,.14-1.57-.08-3.41,.08-4.22-.06-2.77,.06-5.19,.12-8.07,.09l.48-.12c-.51,.09-.33-.07-.84-.05,.58,.09-.7,.12-1.06,.19-1.28-.09-2.92,0-4.05,.09l-.04-.08c-1.15,.15-2.51,.02-3.94,0-.16-.03-.42-.11-.85-.1-.77,.13-1.18,.12-2.31,.2-.83,0-2.18-.03-3.02-.08-3.12,.18-6.3,.07-9.55,.18l-.24-.09c-3.14,.2-7.01,.02-9.69,.12l.26-.16c-.84-.05-1.92,.04-1.7,.16-.84-.05-2.11,.08-2.64-.05-.86-.03-1.06,.08-1.77,.1-1.73-.06-2.37-.05-3.99-.02h.4c.18-.03,.19-.1-.21-.11-.61,.05-2.23-.04-1.63,.15-1.74-.11-4.05,.09-5.74-.06,.14,.05-.28,.06-.46,.1-1.52,0-3.13-.11-4.34-.02-.24-.03,.39-.09-.24-.1-.18,.01-.18,.03-.2,.05-.01,.02-.06,.04-.46,.05-.37,0-.74,.01-1.12,.02v-1.54s0-.86,0-.86c.01-.57,.03-1.13,.04-1.69,.03-1.12,.07-2.21,.06-3.24C0,26.08,.05,21.92,.04,18.1l.04,.04c-.15-1.28,.15-3-.07-4.03,.04-.3,.02-1.16,.09-.93-.1-1.02,.1-2.85-.04-4.33,0,.14,0,.21,.02,.37,.09-1.49-.03-2.8,.05-4.37,.02,.16,.03,.45,.07,.5,.07-.61-.16-1.44,.02-1.77,0-.35-.1-.25-.09-.03,0-.3,0-.6,.01-.9,0-.49,0-.98,0-1.47,.91,0,1.83,0,2.75,0,.74,0,1.48-.02,2.22-.03,1.49-.02,2.98-.05,4.46-.07,2.57,.11,.16,.32,2.18,.18,.17,.04,.12-.07,.15-.03,.78-.05,1.22,.21,1.76,.11-.23-.12,.36-.06,.38-.13,1.57,.07,1.88,.18,3.12,.09l-.09,.06c1.45-.17,3.13-.08,4.36-.28,8-.06,15.67-.11,23.48-.17,7.71,.04,15.27-.05,23.1,.05,1.84,.16,1.97,.16,3.99,.09-.08,.03-.21,.03-.07,.06,.1-.13,1.42-.01,1.61-.14,2.9,.02,5.56-.01,8.54-.01-.47,.01-.71,.12-.15,.11l.59-.08,.09,.04c.38-.02,.8-.08,.41-.13,1.62-.03,3.24-.03,4.85-.03,1.89,.01,3.78,.03,5.66,.04-.03,2.38-.05,4.75-.08,7.12-.02,2.09-.04,4.16-.03,6.24-.06,1.74,0,4.22,.02,6.11-.17,5.61-.32,10.66-.19,16.35,0,0-.34-.74-.42-3.09" fill="#b01e25"/>
        <path d="M90.97,36.93c-.2-.07-.85-.1-.33-.19,.06,.06,.4,.13,.33,.19" fill="#b01e25"/>
        <path d="M73.56,36.26s-.25-.03-.3-.04c.21,0,.41-.06,.59-.03-.22,0-.18,.04-.28,.06" fill="#b01e25"/>
        <path d="M69.11,36.22c.07-.06,1.02-.1,1.58-.11l-1.58,.11Z" fill="#b01e25"/>
        <path d="M64.96,35.98c-.36-.05-.26-.08,.22-.08,.04,.03-.12,.05-.22,.08" fill="#b01e25"/>
        <path d="M64.67,36.11c-.35,0-.52-.03-.68-.07,.01,.05,.8-.03,.68,.07" fill="#b01e25"/>
        <path d="M55.66,35.94c-.22,0-.69,.05-.89-.01,.23,.04,1.05-.07,.89,.01" fill="#b01e25"/>
        <path d="M51.48,36.03c-.14,0-.19-.02-.35,0-.25-.03,.01-.07,.22-.08l.12,.07Z" fill="#b01e25"/>
        <polygon points="1.15 11.3 1.18 11.75 1.13 11.68 1.15 11.3" fill="#b01e25"/>
        <path d="M24.52,2.16c.45-.04,.31,.05,.39,.06-.41,0,.15-.07-.39-.06" fill="#b01e25"/>
        <polygon points="42.51 1.87 42.38 1.87 42.42 1.75 42.51 1.87" fill="#b01e25"/>
      </g>
      <g>
        <g>
          <path d="M114.94,2.51h3.13c-.58,1.87-1.41,3.71-2.48,5.53-1.08,1.81-2.36,3.5-3.84,5.05-1.48,1.56-3.15,2.91-5,4.05l-.22-.25c1.04-.94,2.02-1.99,2.93-3.14,.91-1.15,1.73-2.36,2.47-3.61,.74-1.26,1.36-2.53,1.88-3.83,.51-1.29,.89-2.56,1.14-3.8Zm-7.9,0h18.33l1.59-1.99c.38,.3,.72,.56,1.03,.79,.31,.23,.63,.48,.97,.76,.34,.27,.64,.53,.91,.76-.05,.27-.28,.4-.7,.4h-21.91l-.22-.72Zm7.68,8.27v11.55c0,.08-.17,.22-.52,.42s-.82,.3-1.42,.3h-.42V11.38l.89-1.29,1.79,.7h-.32Zm-1.62,0h12.82v.72h-12.82v-.72Zm.22,9.14h12.69v.72h-12.69v-.72Zm11.67-9.14h-.27l1.22-1.39,2.63,2.04c-.1,.12-.25,.22-.45,.32s-.44,.18-.72,.25v10.18s-.14,.13-.36,.25c-.22,.12-.49,.22-.79,.3-.31,.08-.6,.12-.88,.12h-.37V10.78Z" fill="#1a1a1a"/>
          <path d="M154.34,7.25c.41,.3,.77,.57,1.07,.81s.61,.49,.94,.76c.33,.27,.64,.52,.92,.77-.07,.27-.3,.4-.7,.4h-22.18l-.22-.72h18.6l1.57-2.01Zm-6.81,4.22c-.07,.15-.23,.26-.5,.34-.26,.07-.6,.03-.99-.14l.75-.17c-.43,.65-1,1.35-1.71,2.12-.71,.77-1.5,1.56-2.35,2.36-.85,.8-1.73,1.56-2.62,2.27-.89,.71-1.75,1.33-2.58,1.84l-.03-.27h1.29c-.1,.79-.28,1.42-.55,1.86-.26,.45-.57,.73-.92,.84l-.99-3.13c.25-.05,.45-.1,.6-.15s.26-.11,.35-.17c.6-.46,1.23-1.08,1.91-1.84,.68-.76,1.35-1.6,2.01-2.51,.66-.91,1.25-1.81,1.78-2.69,.52-.89,.93-1.67,1.23-2.35l3.33,1.79ZM151.88,.5c.38,.3,.72,.56,1.02,.79,.3,.23,.61,.48,.93,.73,.32,.26,.62,.51,.91,.76-.07,.27-.31,.4-.72,.4h-17.04l-.2-.72h13.54l1.57-1.96Zm-14.98,19.1c.73,0,1.69-.02,2.88-.05,1.19-.03,2.55-.08,4.07-.15,1.52-.07,3.15-.14,4.88-.24,1.73-.09,3.5-.18,5.3-.26l.03,.42c-1.77,.36-4.07,.78-6.88,1.24-2.82,.46-6,.95-9.56,1.47l-.72-2.43Zm11.72-6.33c1.44,.7,2.65,1.42,3.61,2.16s1.75,1.48,2.33,2.2c.59,.72,1.01,1.4,1.27,2.04,.26,.64,.38,1.21,.38,1.7s-.11,.89-.32,1.18c-.22,.29-.5,.44-.86,.46-.36,.02-.74-.13-1.15-.45-.2-.76-.5-1.54-.89-2.35-.4-.8-.85-1.61-1.37-2.41-.51-.8-1.05-1.58-1.61-2.32-.56-.75-1.12-1.42-1.67-2.04l.27-.17Z" fill="#1a1a1a"/>
          <path d="M166.81,9.71l1.17-1.24,2.16,1.86c-.13,.22-.44,.34-.92,.37-.18,1.24-.44,2.46-.77,3.64-.33,1.18-.79,2.31-1.37,3.38-.58,1.07-1.33,2.05-2.25,2.94-.92,.89-2.06,1.68-3.42,2.36l-.22-.32c1.39-1.03,2.49-2.22,3.29-3.59,.8-1.37,1.4-2.85,1.79-4.46,.39-1.61,.65-3.25,.78-4.94h-.25Zm.4-7.28v.72h-5.56l-.22-.72h5.79Zm1.07,.84c-.18,.41-.42,.93-.71,1.54-.29,.61-.61,1.26-.94,1.95-.34,.69-.67,1.35-.98,2-.31,.65-.6,1.19-.84,1.64h.17l-.82,.77-2.04-1.42c.15-.12,.36-.24,.63-.37,.27-.13,.53-.21,.76-.25l-.84,.72c.26-.43,.56-.97,.89-1.63,.33-.65,.67-1.34,1.01-2.06,.34-.72,.65-1.41,.94-2.07,.29-.66,.52-1.22,.68-1.66l2.09,.84Zm-5.69,8.67c.63,1.79,1.39,3.22,2.3,4.3,.9,1.08,1.99,1.9,3.27,2.46,1.27,.56,2.77,.94,4.48,1.14,1.71,.2,3.69,.3,5.92,.3h2.91c.58,0,1.14,0,1.68-.01,.54,0,1.01-.01,1.4-.01v.3c-.48,.1-.84,.33-1.08,.7-.24,.36-.38,.79-.41,1.27h-4.67c-2.32,0-4.35-.13-6.1-.4-1.75-.27-3.25-.76-4.52-1.49-1.27-.73-2.35-1.76-3.24-3.1s-1.65-3.1-2.26-5.27l.32-.17Zm5.59-2.24v.72h-4.74l.37-.72h4.37Zm-2.29-7.28l1.12-1.12,2.23,2.01c-.13,.13-.35,.23-.65,.3-.3,.07-.63,.1-1.01,.09-.37,0-.74-.03-1.11-.06l-.27-1.22h-.32Zm17.07,1.81c.46,.45,.85,.82,1.16,1.13,.31,.31,.57,.6,.81,.88-.07,.26-.28,.4-.65,.4h-15.95l-.2-.72h13.71l1.12-1.69Zm-1.42,9.79c.35,.27,.65,.51,.92,.72,.26,.22,.55,.44,.84,.68,.3,.24,.57,.47,.82,.68-.03,.13-.11,.23-.24,.3-.12,.07-.28,.1-.46,.1h-14.71l-.2-.72h11.62l1.39-1.76Zm-.97-3.2c.31,.25,.59,.48,.83,.68,.24,.21,.49,.42,.76,.65s.5,.44,.72,.63c-.07,.26-.29,.4-.67,.4h-12.25l-.2-.72h9.56l1.24-1.64Zm-.25-8.12v.72h-10.21l-.22-.72h10.43Zm-.05,6.51v.72h-10.01l-.22-.72h10.23Zm-2.86-8.89c-.03,.18-.11,.33-.24,.45-.12,.12-.35,.2-.68,.25V18.98c0,.08-.09,.18-.26,.29-.17,.11-.4,.2-.68,.29-.28,.08-.57,.12-.87,.12h-.45V0l3.18,.32Zm1.67,2.38l1.09-1.19,2.36,1.79c-.07,.08-.19,.17-.37,.26s-.4,.16-.65,.21v6.36c0,.07-.1,.15-.31,.24s-.45,.18-.73,.26-.55,.12-.79,.12h-.35V2.71h-.25Z" fill="#1a1a1a"/>
          <path d="M197.46,2.98c.5,.4,.91,.74,1.24,1.02,.33,.28,.63,.56,.89,.82-.05,.27-.27,.4-.65,.4h-9.86l-.2-.72h7.38l1.19-1.52Zm-1.09,3.43c.46,.36,.85,.68,1.17,.96,.31,.27,.6,.53,.87,.78-.07,.27-.29,.4-.67,.4h-7.75l-.2-.72h5.49l1.09-1.42Zm0,3.33c.46,.36,.85,.68,1.17,.94,.31,.26,.6,.52,.87,.77-.07,.26-.29,.4-.67,.4h-7.75l-.2-.72h5.49l1.09-1.39Zm-4.15,12.47c0,.07-.09,.15-.26,.26-.17,.11-.39,.21-.66,.3-.26,.09-.55,.14-.87,.14h-.3V13.49l2.21,.94h4v.72h-4.12v7.05Zm4.15-2.31v.72h-5.04v-.72h5.04ZM191.57,.25c.96,.13,1.72,.34,2.29,.63,.56,.29,.96,.61,1.19,.97,.23,.36,.34,.7,.32,1.03-.02,.33-.13,.61-.34,.84s-.48,.36-.81,.4c-.33,.03-.69-.07-1.07-.32-.08-.58-.31-1.19-.68-1.83-.37-.64-.75-1.16-1.13-1.58l.22-.15Zm3.78,14.18l1.04-1.14,2.29,1.74c-.17,.2-.5,.35-.99,.45v5.89s-.1,.12-.29,.22c-.19,.1-.42,.19-.7,.29-.27,.09-.53,.14-.78,.14h-.35v-7.58h-.22Zm11.48-3.03l1.37-1.29,2.24,2.04c-.1,.12-.22,.2-.37,.25-.15,.05-.37,.08-.67,.1-.7,1.69-1.62,3.22-2.78,4.58s-2.6,2.55-4.32,3.55c-1.72,1-3.77,1.79-6.14,2.37l-.2-.35c2.96-1.11,5.38-2.63,7.24-4.56,1.86-1.93,3.17-4.16,3.91-6.69h-.27Zm-6.51-9.96V.72l2.53,.97h-.4v1.99c0,.53-.05,1.12-.14,1.76-.09,.65-.29,1.3-.58,1.97-.3,.67-.75,1.32-1.35,1.94-.61,.62-1.41,1.18-2.42,1.68l-.22-.3c.76-.73,1.33-1.49,1.69-2.3s.6-1.61,.72-2.42c.12-.81,.17-1.59,.17-2.33V1.44Zm7.92,9.96v.72h-9.37l-.22-.72h9.59Zm-7.78,.07c.41,1.33,.98,2.49,1.69,3.49,.71,1,1.56,1.86,2.53,2.58,.98,.72,2.07,1.32,3.27,1.8,1.2,.48,2.49,.87,3.86,1.17l-.02,.27c-.5,.1-.91,.32-1.24,.66-.33,.34-.59,.78-.77,1.33-1.72-.61-3.23-1.39-4.52-2.33-1.29-.94-2.37-2.12-3.22-3.54-.85-1.42-1.5-3.15-1.95-5.2l.37-.22Zm6.36-9.79v.72h-5.22v-.72h5.22Zm-1.39,0l1.12-1.19,2.16,1.79c-.17,.17-.47,.28-.92,.35V7.2c0,.13,.02,.23,.07,.29s.17,.09,.35,.09h1.23c.14,0,.24,0,.31-.02h.45c.08-.02,.17-.03,.26-.05,.09-.02,.17-.03,.24-.05h.25l.1,.02c.28,.12,.48,.24,.6,.36,.12,.12,.17,.29,.17,.48,0,.43-.22,.75-.66,.97s-1.25,.32-2.42,.32h-1.22c-.55,0-.95-.06-1.22-.17-.27-.12-.44-.31-.52-.58-.08-.27-.12-.62-.12-1.06V1.69h-.22Z" fill="#1a1a1a"/>
        </g>
        <g>
          <path d="M107.53,33.88c.18,.22,.38,.39,.61,.51,.22,.12,.48,.18,.77,.18,.38,0,.69-.11,.92-.32,.23-.21,.35-.48,.35-.81s-.07-.58-.22-.77c-.15-.19-.35-.35-.59-.47-.24-.12-.5-.23-.77-.32-.18-.06-.38-.14-.59-.24-.22-.1-.43-.23-.62-.38-.2-.15-.36-.34-.49-.57-.13-.23-.19-.5-.19-.83,0-.35,.09-.67,.27-.95,.18-.28,.42-.5,.74-.66,.31-.16,.67-.24,1.08-.24s.73,.07,1.02,.22,.54,.33,.74,.56c.2,.23,.37,.47,.48,.72l-.75,.43c-.09-.18-.2-.35-.34-.52-.14-.17-.3-.31-.5-.42-.2-.11-.43-.16-.71-.16-.39,0-.67,.09-.85,.28-.18,.19-.27,.4-.27,.63,0,.2,.05,.38,.15,.55,.1,.17,.27,.32,.52,.47,.24,.15,.57,.29,.99,.44,.19,.07,.39,.16,.6,.27,.21,.11,.41,.25,.59,.42,.18,.17,.33,.37,.45,.6,.12,.24,.17,.52,.17,.85s-.06,.6-.18,.85c-.12,.25-.28,.47-.49,.65-.21,.18-.44,.31-.71,.41-.26,.1-.54,.14-.82,.14-.39,0-.75-.08-1.08-.25-.33-.17-.62-.39-.87-.67-.25-.28-.45-.57-.61-.89l.7-.47c.16,.29,.34,.54,.52,.76Z" fill="#1a1a1a"/>
          <path d="M113.64,35.3h-.82v-7.99h.82v7.99Zm1.95-3.75c-.17-.2-.42-.3-.75-.3-.24,0-.45,.05-.63,.15-.18,.1-.32,.24-.42,.42-.1,.18-.15,.38-.15,.6h-.27c0-.38,.07-.71,.21-1,.14-.29,.34-.52,.59-.69,.25-.17,.54-.26,.87-.26s.61,.07,.86,.2c.24,.14,.43,.34,.56,.61s.2,.61,.2,1.02v2.97h-.82v-2.87c0-.39-.08-.68-.25-.88Z" fill="#1a1a1a"/>
          <path d="M118.87,28.24c.11-.11,.24-.16,.39-.16s.29,.05,.4,.16c.11,.11,.16,.24,.16,.4s-.05,.28-.16,.39-.24,.17-.4,.17-.28-.06-.39-.17-.17-.24-.17-.39,.06-.29,.17-.4Zm.8,2.35v4.71h-.82v-4.71h.82Z" fill="#1a1a1a"/>
          <path d="M122.7,35.3h-.82v-7.99h.82v7.99Zm1.95-3.75c-.17-.2-.42-.3-.75-.3-.24,0-.45,.05-.63,.15-.18,.1-.32,.24-.42,.42-.1,.18-.15,.38-.15,.6h-.27c0-.38,.07-.71,.21-1,.14-.29,.34-.52,.59-.69,.25-.17,.54-.26,.87-.26s.61,.07,.85,.2c.24,.14,.43,.34,.56,.61,.13,.27,.2,.61,.2,1.02v2.97h-.82v-2.87c0-.39-.08-.68-.25-.88Z" fill="#1a1a1a"/>
          <path d="M127.05,32.48h2.05v.77h-2.05v-.77Z" fill="#1a1a1a"/>
          <path d="M135.36,28.13l-2.39,4.08v3.09h-.87v-3.08l-2.39-4.09h.97l1.84,3.32,1.85-3.32h.97Z" fill="#1a1a1a"/>
          <path d="M136.95,34.32c.17,.21,.42,.31,.75,.31,.24,0,.45-.05,.63-.15,.18-.1,.32-.24,.42-.41,.1-.18,.15-.38,.15-.61v-2.87h.82v4.71h-.82v-.74c-.16,.28-.35,.49-.58,.63-.23,.14-.5,.21-.82,.21-.49,0-.88-.17-1.18-.5s-.44-.78-.44-1.34v-2.97h.82v2.87c0,.38,.09,.67,.26,.87Z" fill="#1a1a1a"/>
          <path d="M144.52,31.55c-.17-.2-.42-.3-.75-.3-.24,0-.45,.05-.63,.15-.18,.1-.32,.24-.42,.42-.1,.18-.15,.38-.15,.61v2.87h-.82v-4.71h.82v.74c.16-.29,.35-.5,.59-.64,.24-.14,.51-.2,.81-.2,.5,0,.89,.17,1.18,.5s.44,.78,.44,1.35v2.97h-.82v-2.87c0-.39-.08-.68-.26-.88Z" fill="#1a1a1a"/>
          <path d="M151.97,31.02h1.16c.24,0,.45-.04,.65-.12,.19-.08,.34-.2,.45-.36,.11-.16,.16-.35,.16-.57,0-.34-.12-.61-.36-.79-.24-.19-.54-.28-.9-.28h-.97v5.63h1.08c.31,0,.58-.05,.81-.16,.24-.11,.42-.27,.55-.47,.13-.2,.2-.45,.2-.75,0-.22-.04-.41-.11-.58-.07-.17-.18-.31-.32-.43-.14-.12-.31-.2-.5-.26-.19-.06-.4-.09-.64-.09h-1.26v-.48h1.26c.35,0,.67,.04,.96,.11s.55,.19,.77,.34c.22,.15,.39,.35,.52,.59,.12,.24,.18,.52,.18,.85,0,.47-.11,.86-.32,1.17-.22,.31-.5,.54-.87,.7-.37,.15-.78,.23-1.25,.23h-1.95v-7.17h1.84c.43,0,.8,.06,1.12,.19,.32,.13,.57,.33,.74,.59,.18,.26,.27,.6,.27,1.01,0,.33-.09,.62-.27,.86-.18,.24-.42,.42-.74,.54-.32,.12-.69,.18-1.12,.18h-1.16v-.48Z" fill="#1a1a1a"/>
          <path d="M158.53,34.32c.17,.21,.42,.31,.75,.31,.24,0,.45-.05,.63-.15,.18-.1,.32-.24,.42-.41,.1-.18,.15-.38,.15-.61v-2.87h.82v4.71h-.82v-.74c-.16,.28-.35,.49-.58,.63-.23,.14-.51,.21-.82,.21-.49,0-.88-.17-1.18-.5s-.44-.78-.44-1.34v-2.97h.82v2.87c0,.38,.08,.67,.26,.87Z" fill="#1a1a1a"/>
          <path d="M163.52,28.24c.11-.11,.24-.16,.39-.16s.29,.05,.4,.16c.11,.11,.16,.24,.16,.4s-.05,.28-.16,.39-.24,.17-.4,.17-.28-.06-.39-.17c-.11-.11-.17-.24-.17-.39s.06-.29,.17-.4Zm.8,2.35v4.71h-.82v-4.71h.82Z" fill="#1a1a1a"/>
          <path d="M167.34,27.31v7.99h-.82v-7.99h.82Z" fill="#1a1a1a"/>
          <path d="M169.3,31.62c.21-.36,.49-.65,.85-.84,.36-.2,.74-.3,1.17-.3,.4,0,.74,.1,1.03,.3,.29,.2,.52,.48,.69,.84,.17,.37,.25,.8,.25,1.32s-.08,.94-.25,1.31c-.17,.37-.4,.65-.69,.85-.29,.2-.64,.3-1.03,.3-.42,0-.81-.1-1.17-.3-.36-.2-.64-.48-.85-.85-.21-.37-.32-.81-.32-1.31s.11-.95,.32-1.32Zm.73,2.24c.15,.25,.34,.44,.59,.57,.25,.13,.51,.19,.8,.19,.24,0,.47-.06,.71-.19,.23-.13,.42-.32,.57-.57,.15-.25,.22-.56,.22-.92s-.08-.67-.22-.92c-.15-.25-.34-.44-.57-.57-.23-.13-.47-.19-.71-.19-.29,0-.55,.06-.8,.19-.25,.13-.44,.32-.59,.57-.15,.25-.22,.56-.22,.92s.07,.67,.22,.92Zm3.71-6.55v7.99h-.82v-7.99h.82Z" fill="#1a1a1a"/>
          <path d="M180.26,33.18c.25,.42,.58,.75,.98,.99,.4,.24,.84,.36,1.31,.36,.34,0,.65-.04,.94-.13,.28-.09,.54-.21,.77-.37,.23-.16,.43-.35,.59-.56v1.15c-.3,.27-.63,.46-.98,.59-.35,.13-.8,.19-1.32,.19-.5,0-.96-.09-1.4-.27s-.81-.44-1.14-.77c-.33-.33-.58-.72-.77-1.17-.18-.45-.28-.94-.28-1.47s.09-1.02,.28-1.48c.19-.45,.44-.84,.77-1.17,.33-.33,.71-.59,1.14-.77,.43-.18,.9-.27,1.4-.27,.53,0,.97,.06,1.32,.19,.35,.13,.68,.33,.98,.59v1.15c-.16-.21-.36-.4-.59-.56-.23-.16-.49-.29-.77-.37-.28-.09-.6-.13-.94-.13-.47,0-.91,.12-1.31,.36-.4,.24-.73,.57-.98,.99-.25,.42-.37,.91-.37,1.47s.12,1.04,.37,1.46Z" fill="#1a1a1a"/>
          <path d="M186.77,31.67c.21-.37,.51-.66,.88-.87,.37-.21,.78-.32,1.24-.32s.88,.11,1.25,.32c.36,.21,.65,.5,.87,.87,.22,.37,.32,.79,.32,1.27s-.11,.89-.32,1.26c-.21,.37-.5,.66-.87,.88-.37,.21-.78,.32-1.25,.32s-.87-.11-1.24-.32c-.37-.21-.66-.5-.88-.88-.22-.37-.32-.79-.32-1.26s.11-.9,.32-1.27Zm.72,2.14c.14,.25,.33,.45,.57,.6,.24,.15,.52,.22,.82,.22s.58-.07,.83-.22c.24-.15,.43-.35,.57-.6,.14-.25,.21-.54,.21-.87s-.07-.62-.21-.88c-.14-.26-.33-.46-.57-.6-.24-.14-.52-.21-.83-.21s-.58,.07-.82,.21c-.24,.14-.43,.34-.57,.6-.14,.26-.21,.55-.21,.88s.07,.62,.21,.87Z" fill="#1a1a1a"/>
          <path d="M192.82,34.49c.11-.11,.24-.16,.39-.16s.29,.05,.4,.16,.16,.24,.16,.4-.05,.28-.16,.39c-.11,.11-.24,.17-.4,.17s-.28-.06-.39-.17c-.11-.11-.17-.24-.17-.39s.06-.29,.17-.4Z" fill="#1a1a1a"/>
          <path d="M197.6,34.48l-1.13,2.56-.59-.22,.9-2.65,.82,.31Z" fill="#1a1a1a"/>
          <path d="M200.62,28.13v6.35h2.82v.82h-3.69v-7.17h.87Z" fill="#1a1a1a"/>
          <path d="M206.46,30.58v.77h-2.36v-.77h2.36Zm-.77-1.64v6.35h-.82v-6.35h.82Z" fill="#1a1a1a"/>
          <path d="M207.69,31.62c.21-.36,.5-.65,.85-.84,.36-.2,.74-.3,1.17-.3,.4,0,.74,.1,1.04,.3,.29,.2,.52,.48,.69,.84,.17,.37,.25,.8,.25,1.32s-.08,.94-.25,1.31c-.17,.37-.4,.65-.69,.85-.29,.2-.64,.3-1.04,.3-.42,0-.81-.1-1.17-.3-.35-.2-.64-.48-.85-.85-.21-.37-.32-.81-.32-1.31s.11-.95,.32-1.32Zm.73,2.24c.15,.25,.34,.44,.59,.57,.25,.13,.51,.19,.8,.19,.24,0,.47-.06,.71-.19,.23-.13,.42-.32,.57-.57,.15-.25,.22-.56,.22-.92s-.07-.67-.22-.92c-.15-.25-.34-.44-.57-.57-.23-.13-.47-.19-.71-.19-.29,0-.55,.06-.8,.19-.25,.13-.44,.32-.59,.57-.15,.25-.22,.56-.22,.92s.07,.67,.22,.92Zm3.71-6.55v7.99h-.82v-7.99h.82Z" fill="#1a1a1a"/>
        </g>
      </g>
    </g>
  </g>
</svg>